<?xml version="1.0" encoding="UTF-8"?>
<svg version="1.1" xmlns="http://www.w3.org/2000/svg" width="225" height="225">
<path d="M0 0 C74.25 0 148.5 0 225 0 C225 74.25 225 148.5 225 225 C150.75 225 76.5 225 0 225 C0 150.75 0 76.5 0 0 Z " fill="#FEFEFE" transform="translate(0,0)"/>
<path d="M0 0 C0.73286224 -0.00807175 1.46572449 -0.01614349 2.22079468 -0.02445984 C3.77591589 -0.03830264 5.33106751 -0.04902393 6.88623047 -0.05688477 C9.24376853 -0.07400332 11.5998689 -0.11787242 13.95703125 -0.16210938 C28.68120806 -0.32186075 28.68120806 -0.32186075 34.6484375 4.23828125 C39.71966524 10.72951136 39.21681961 17.35764429 39.16601562 25.30834961 C39.17144181 26.73481458 39.17856726 28.16127395 39.18725586 29.58772278 C39.20543507 33.4473672 39.19844388 37.3065822 39.18573952 41.16623378 C39.1755817 45.21439532 39.18501308 49.26252115 39.19128418 53.3106842 C39.19855335 60.10880096 39.18899302 66.90674368 39.16992188 73.70483398 C39.14816319 81.55126117 39.15519996 89.3972724 39.1772275 97.24368948 C39.19541287 103.99298045 39.19792428 110.74214661 39.18747282 117.49145418 C39.18125394 121.51696971 39.18035759 125.5422901 39.19361877 129.56779289 C39.20522223 133.35434628 39.19707049 137.14036658 39.17404175 140.92686272 C39.16877811 142.31191119 39.17022808 143.69700496 39.17909241 145.08203506 C39.22432312 152.87073646 39.01710765 158.65121693 34.6484375 165.23828125 C28.35079511 170.69800304 19.77079391 169.8466925 11.90307617 169.75976562 C9.58731763 169.73829405 7.27464922 169.75964199 4.95898438 169.78515625 C3.46874324 169.78251325 1.97850401 169.77738884 0.48828125 169.76953125 C-0.19420181 169.77762817 -0.87668488 169.7857251 -1.57984924 169.79406738 C-6.78055557 169.69385601 -10.41387473 168.53452805 -14.3515625 165.23828125 C-19.09618452 158.1025271 -18.92255342 151.37842092 -18.86914062 143.02294922 C-18.87456832 141.59309173 -18.88169461 140.16323984 -18.89038086 138.73339844 C-18.9085372 134.8698153 -18.90157974 131.00666181 -18.88886452 127.14307165 C-18.87870067 123.09131094 -18.8881392 119.03958573 -18.89440918 114.98782349 C-18.90167411 108.18729072 -18.89212658 101.38693208 -18.87304688 94.58642578 C-18.85126273 86.73141771 -18.85834515 78.87682471 -18.8803525 71.02182662 C-18.89851862 64.26660201 -18.90105945 57.51150215 -18.89059782 50.75626099 C-18.88437177 46.72635286 -18.88350302 42.69663973 -18.89674377 38.66674423 C-18.90832008 34.87936255 -18.90024475 31.09251515 -18.87716675 27.30519104 C-18.87188982 25.91768912 -18.8733761 24.53014202 -18.88221741 23.14265823 C-18.9573741 10.14773143 -18.9573741 10.14773143 -14.3515625 5.23828125 C-9.41330117 0.88790818 -6.44433016 0.06720957 0 0 Z " fill="#5182C1" transform="translate(102.3515625,27.76171875)"/>
<path d="M0 0 C2.23256584 0.03435841 4.46117121 0.02061607 6.69384766 0.0012207 C14.15732396 0.00591406 20.49553993 0.0598794 26.73681641 4.59692383 C31.32920745 9.88152083 31.31007806 14.33754335 31.25439453 21.00512695 C31.26140381 22.03999741 31.26841309 23.07486786 31.27563477 24.14109802 C31.29320538 27.5537315 31.2815947 30.96553226 31.26806641 34.37817383 C31.27076157 36.7541927 31.2746442 39.13021049 31.27966309 41.50622559 C31.2855569 46.4826916 31.27699855 51.45887017 31.25830078 56.43530273 C31.23551177 62.81103648 31.24863541 69.18609668 31.27259064 75.56180573 C31.28705149 80.46719427 31.2824412 85.3724234 31.27207947 90.27781677 C31.269413 92.62853577 31.2726791 94.97926928 31.28199768 97.32997131 C31.29216751 100.6166106 31.27665471 103.90216232 31.25439453 107.1887207 C31.26249146 108.1582518 31.27058838 109.1277829 31.27893066 110.12669373 C31.20794181 115.79036809 30.56661451 119.13086917 26.73681641 123.59692383 C22.27633658 127.37972277 18.65865771 128.18570178 12.95947266 128.09301758 C12.22989853 128.09447281 11.5003244 128.09592804 10.74864197 128.09742737 C9.21316516 128.09577531 7.67767059 128.08429195 6.14233398 128.06347656 C3.8091697 128.03454601 1.47828594 128.04287594 -0.85498047 128.0559082 C-2.35434033 128.04966859 -3.8536931 128.0412759 -5.35302734 128.03051758 C-6.04178452 128.03345322 -6.73054169 128.03638885 -7.44017029 128.03941345 C-13.53189669 127.92248357 -18.31318883 126.59823425 -22.63818359 122.15942383 C-24.94145111 118.52734814 -25.38669011 115.5042976 -25.40362549 111.25273132 C-25.40933563 110.39069092 -25.41504578 109.52865051 -25.42092896 108.64048767 C-25.42204681 107.70274002 -25.42316467 106.76499237 -25.42431641 105.79882812 C-25.42928131 104.8048703 -25.43424622 103.81091248 -25.43936157 102.78683472 C-25.4539678 99.49826363 -25.46078258 96.20974078 -25.46630859 92.92114258 C-25.47206121 90.63434345 -25.47781893 88.34754434 -25.48358154 86.06074524 C-25.49408708 81.26494116 -25.49993271 76.46915382 -25.50341797 71.67333984 C-25.50890242 65.53319344 -25.53293149 59.39326881 -25.56138992 53.25319195 C-25.58002851 48.52880713 -25.58522256 43.80447562 -25.58675385 39.08005714 C-25.58977801 36.81667684 -25.59779855 34.55329741 -25.61093903 32.28995323 C-25.62802502 29.12086561 -25.62611285 25.95231833 -25.61962891 22.78320312 C-25.62884369 21.85152817 -25.63805847 20.91985321 -25.64755249 19.95994568 C-25.60807616 13.78950269 -24.88679213 8.7490196 -20.80029297 3.83935547 C-14.42980339 -0.46733796 -7.39825142 -0.12609731 0 0 Z " fill="#FFD401" transform="translate(25.26318359375,69.403076171875)"/>
<path d="M0 0 C1.23533981 -0.0099852 1.23533981 -0.0099852 2.49563599 -0.02017212 C4.235512 -0.03028253 5.97542667 -0.03498964 7.71533203 -0.03466797 C10.36686658 -0.03903623 13.01672907 -0.07535715 15.66796875 -0.11328125 C17.3619735 -0.1191509 19.05598612 -0.1231193 20.75 -0.125 C21.53768768 -0.13937103 22.32537537 -0.15374207 23.13693237 -0.16854858 C28.34969535 -0.12563391 31.51128581 0.68976289 35.5078125 4.3359375 C38.12009368 9.39496079 38.88536286 13.13184419 38.89599609 18.90429688 C38.90125305 19.6255928 38.90651001 20.34688873 38.91192627 21.09004211 C38.92503528 23.4534833 38.91642107 25.81624051 38.90625 28.1796875 C38.90827336 29.83443327 38.91118698 31.48917817 38.91494751 33.1439209 C38.91935853 36.60368379 38.9129794 40.06321354 38.89892578 43.52294922 C38.88183451 47.94460358 38.89168228 52.36571154 38.90964317 56.78734589 C38.92051418 60.201844 38.91701951 63.61621384 38.9092598 67.03071594 C38.90726695 68.66050787 38.90968472 70.29031167 38.91669846 71.92008972 C38.92436794 74.20289707 38.91263321 76.48483507 38.89599609 78.76757812 C38.89360931 80.06328735 38.89122253 81.35899658 38.88876343 82.69396973 C38.33529495 87.98524009 36.96555442 91.91557358 33.0703125 95.7109375 C28.52615619 98.5925976 24.1644464 98.51890053 18.890625 98.57421875 C18.1558493 98.5822905 17.42107361 98.59036224 16.66403198 98.59867859 C15.11247082 98.61247761 13.56087983 98.62321838 12.00927734 98.63110352 C10.4284572 98.64263405 8.84767632 98.6631031 7.26708984 98.69262695 C4.97466772 98.73541565 2.68339743 98.75148526 0.390625 98.76171875 C-0.30956757 98.77922684 -1.00976013 98.79673492 -1.73117065 98.81477356 C-6.78573875 98.79261477 -9.58379484 97.47131753 -13.4921875 94.3359375 C-17.44081645 89.84267007 -17.650335 85.71385256 -17.68505859 79.94628906 C-17.69323608 79.19631653 -17.70141357 78.44634399 -17.70983887 77.67364502 C-17.73465352 75.19129223 -17.7511996 72.70899652 -17.765625 70.2265625 C-17.77094868 69.37751091 -17.77627235 68.52845932 -17.78175735 67.65367889 C-17.80847308 63.15877689 -17.82785218 58.6639025 -17.84228516 54.16894531 C-17.85561956 50.45385083 -17.88346468 46.73930624 -17.92431641 43.02441406 C-17.97369319 38.53401625 -17.99841234 34.04411686 -18.00551224 29.55345917 C-18.01221509 27.84546213 -18.02741209 26.13747579 -18.05140305 24.42963409 C-18.08313911 22.03355907 -18.08307957 19.63939538 -18.07568359 17.24316406 C-18.09208893 16.54368652 -18.10849426 15.84420898 -18.12539673 15.12353516 C-18.05572282 9.58218186 -16.07161525 6.32965619 -12.4921875 2.3359375 C-8.90255766 -0.51786249 -4.39738947 0.01236149 0 0 Z " fill="#AD0F0A" transform="translate(186.4921875,98.6640625)"/>
<path d="M0 0 C0.66 0 1.32 0 2 0 C0.50079488 3.11373372 -1.08152136 6.12228205 -3 9 C-3.66 9 -4.32 9 -5 9 C-3.7580393 5.56072421 -2.44259716 2.74792181 0 0 Z " fill="#B11D1B" transform="translate(174,101)"/>
</svg>
