<?xml version="1.0" encoding="UTF-8"?>
<svg version="1.1" xmlns="http://www.w3.org/2000/svg" width="2000" height="2000">
<path d="M0 0 C1.73839142 0.00090637 1.73839142 0.00090637 3.51190186 0.00183105 C94.9972805 0.12974991 185.80929783 12.83498279 587.0625 189.1875 C587.82030762 189.73567383 588.57811523 190.28384766 589.35888672 190.84863281 C599.60821554 198.27748209 609.65164448 205.9079285 619.47119141 213.89599609 C621.73980346 215.73719858 624.02646471 217.55550253 626.3125 219.375 C635.16419138 226.46508832 643.88030898 233.69194299 652.46875 241.09765625 C654.79034405 243.09896559 657.12284887 245.0858426 659.46875 247.05859375 C668.25467452 254.46844006 676.62357995 262.26755564 684.94970703 270.18798828 C686.95379897 272.08462717 688.97109842 273.9655647 690.99609375 275.83984375 C698.68236351 282.96030656 706.20474428 290.22719074 713.625 297.625 C714.45813721 298.45354492 715.29127441 299.28208984 716.1496582 300.13574219 C720.46202804 304.45900295 724.60412132 308.86295186 728.58569336 313.49243164 C730.3238433 315.48746802 732.15934008 317.34996628 734.0625 319.1875 C737.25511312 322.3373003 740.23411279 325.59969489 743.15625 329 C745.37195648 331.54261399 747.65348592 334.01860198 749.9375 336.5 C753.98771292 340.94000784 757.81784122 345.50684281 761.58984375 350.18359375 C764.4713329 353.68417062 767.44985362 357.09015775 770.4375 360.5 C776.11604027 367.00366963 781.51532505 373.68163398 786.78027344 380.52294922 C788.00654246 382.11485748 789.2413552 383.70017342 790.4765625 385.28515625 C823.96506006 428.42750408 853.93337242 474.23854656 880.0625 522.1875 C880.60455078 523.1760498 881.14660156 524.16459961 881.70507812 525.18310547 C921.07132385 597.09888423 950.69772417 674.06138186 1000.0625 945.1875 C1000.10486786 945.9948761 1000.14723572 946.8022522 1000.19088745 947.63409424 C1001.0684037 964.81886889 1001.26424635 981.98239514 1001.25 999.1875 C1001.24973312 999.86277489 1001.24946625 1000.53804977 1001.24919128 1001.23378754 C1001.23764721 1024.60081115 1000.81305843 1047.87969903 999.0625 1071.1875 C998.99933594 1072.03799927 998.93617187 1072.88849854 998.87109375 1073.76477051 C994.60223992 1130.63835439 985.75566795 1186.82083886 972.0625 1242.1875 C971.8706311 1242.96722168 971.67876221 1243.74694336 971.4810791 1244.55029297 C957.29564249 1302.10178523 937.63507644 1358.24976329 913.0625 1412.1875 C912.55364258 1413.30672852 912.04478516 1414.42595703 911.52050781 1415.57910156 C879.24942109 1486.34008017 838.89743492 1552.85076893 791.0625 1614.1875 C790.17184315 1615.33721491 789.28121916 1616.48695528 788.390625 1617.63671875 C782.98042439 1624.59639161 777.41349374 1631.39207234 771.6875 1638.09375 C769.22334036 1640.9830132 766.82589 1643.92268458 764.4375 1646.875 C760.81181653 1651.32941113 757.03820347 1655.61698601 753.171875 1659.86328125 C751.31623343 1661.90792335 749.49493624 1663.97534149 747.6875 1666.0625 C742.91649446 1671.53223404 737.98490488 1676.85457482 733.0625 1682.1875 C732.5528923 1682.74067398 732.04328461 1683.29384796 731.51823425 1683.86378479 C723.07523939 1693.01778611 714.44846701 1701.96091007 705.62841797 1710.75195312 C703.66384799 1712.71108656 701.70478552 1714.67561644 699.74609375 1716.640625 C694.23892649 1722.15070167 688.7583468 1727.6325243 682.81640625 1732.67871094 C679.51591539 1735.51794166 676.40309015 1738.5618909 673.25 1741.5625 C667.85165165 1746.66518573 662.38006024 1751.51798184 656.5703125 1756.1484375 C653.98646966 1758.24931906 651.5225648 1760.44336565 649.0625 1762.6875 C644.40333975 1766.92310022 639.58705494 1770.92138884 634.68603516 1774.87304688 C632.86120879 1776.3504702 631.04556697 1777.83876769 629.23046875 1779.328125 C621.87549032 1785.35402887 614.47289114 1791.27315979 606.80761719 1796.90332031 C604.76560122 1798.40597896 602.73055496 1799.91786788 600.6953125 1801.4296875 C559.16220524 1832.2321618 515.73787959 1859.91482168 470.0625 1884.1875 C469.14210938 1884.67927734 468.22171875 1885.17105469 467.2734375 1885.67773438 C419.64337833 1911.08721751 370.1392539 1931.79917485 319.0625 1949.1875 C318.11008423 1949.51334076 318.11008423 1949.51334076 317.13842773 1949.84576416 C239.516299 1976.38780147 158.1540173 1991.57093175 76.47729492 1997.99609375 C74.23369209 1998.17393063 71.99086015 1998.359388 69.74804688 1998.546875 C23.8896997 2002.30314354 -23.87772816 2002.20374595 -69.72583008 1998.37109375 C-72.11164563 1998.17304393 -74.49811814 1997.98462246 -76.88476562 1997.796875 C-157.66067214 1991.36623526 -236.95673694 1975.44596482 -313.9375 1950.1875 C-314.6063623 1949.96898376 -315.27522461 1949.75046753 -315.96435547 1949.52532959 C-380.16209485 1928.53624844 -443.16718575 1900.56440415 -501.14941406 1865.84912109 C-503.89913004 1864.21036742 -506.66155386 1862.59569623 -509.4296875 1860.98828125 C-529.11339973 1849.53180755 -548.30793242 1837.2893489 -566.9375 1824.1875 C-568.29802986 1823.23807025 -569.65871132 1822.2888577 -571.01953125 1821.33984375 C-591.68883988 1806.88163958 -611.60945648 1791.60971693 -631.13769531 1775.65527344 C-632.71060294 1774.37253868 -634.28848284 1773.09590587 -635.8671875 1771.8203125 C-646.63544194 1763.09706781 -657.08094366 1753.98556648 -667.27734375 1744.6015625 C-669.43703214 1742.64166908 -671.61721632 1740.71575272 -673.81640625 1738.80078125 C-686.94119851 1727.3378398 -699.2359514 1714.99305322 -711.5625 1702.6875 C-712.26858398 1701.98400421 -712.97466797 1701.28050842 -713.70214844 1700.55569458 C-715.75493529 1698.50883702 -717.80387298 1696.45820574 -719.8515625 1694.40625 C-720.46150055 1693.79829086 -721.0714386 1693.19033173 -721.69985962 1692.56394958 C-725.39549046 1688.84871959 -728.90307937 1685.01560956 -732.32043457 1681.04267883 C-735.05899655 1677.90086273 -737.94581909 1674.89942079 -740.8125 1671.875 C-745.70599848 1666.67646569 -750.3486012 1661.36759647 -754.8046875 1655.78515625 C-757.04879275 1653.05195114 -759.40617753 1650.46613407 -761.8125 1647.875 C-765.99485989 1643.3253142 -769.84340928 1638.60849518 -773.62280273 1633.72680664 C-777.13355765 1629.19287198 -780.73708846 1624.74480493 -784.375 1620.3125 C-790.80233884 1612.44443633 -796.9298287 1604.37925051 -802.9375 1596.1875 C-803.44216797 1595.49994629 -803.94683594 1594.81239258 -804.46679688 1594.10400391 C-856.12642092 1523.53617573 -899.22314874 1446.74672768 -930.9375 1365.1875 C-931.1811731 1364.56111633 -931.42484619 1363.93473267 -931.67590332 1363.28936768 C-962.69524368 1283.37248383 -983.60131818 1199.60685716 -997.9375 1056.1875 C-997.97986786 1055.42122284 -998.02223572 1054.65494568 -998.06588745 1053.865448 C-999.00640699 1036.49757819 -999.13965413 1019.13912752 -999.125 1001.75 C-999.12459969 1000.68177631 -999.12459969 1000.68177631 -999.12419128 999.59197235 C-999.11300445 975.74372747 -998.76144231 951.97515184 -996.9375 928.1875 C-996.87433594 927.35480591 -996.81117188 926.52211182 -996.74609375 925.66418457 C-992.40875412 869.12728141 -983.55091734 813.23169926 -969.9375 758.1875 C-969.7456311 757.40777832 -969.55376221 756.62805664 -969.3560791 755.82470703 C-949.79256862 676.45392328 -919.74098987 599.60036698 -861.61865234 493.00976562 C-860.02265934 490.33046281 -858.44246865 487.64235398 -856.86328125 484.953125 C-849.22234285 472.06686296 -840.9937693 459.58834762 -832.6875 447.125 C-832.13187378 446.29056366 -831.57624756 445.45612732 -831.00378418 444.59640503 C-824.15795298 434.32904832 -817.18887818 424.17275503 -809.9375 414.1875 C-809.3069873 413.31730225 -808.67647461 412.44710449 -808.02685547 411.55053711 C-800.54163133 401.26071469 -792.90880507 391.10576415 -784.9375 381.1875 C-784.4233252 380.5471582 -783.90915039 379.90681641 -783.37939453 379.24707031 C-777.28545534 371.67220688 -771.12399398 364.1607078 -764.8137207 356.76489258 C-762.02454504 353.49232073 -759.31037584 350.17045616 -756.625 346.8125 C-751.75677207 340.82150959 -746.46590792 335.25214115 -741.171875 329.640625 C-738.74101189 327.05974291 -736.37198457 324.44086734 -734.0625 321.75 C-731.24432057 318.47156514 -728.2344993 315.43977518 -725.125 312.4375 C-723.31838657 310.57926904 -721.64600912 308.69140625 -719.96484375 306.72265625 C-715.28264127 301.33431826 -710.22205908 296.32234267 -705.16772461 291.28735352 C-703.50323723 289.6282268 -701.84416553 287.96381949 -700.18554688 286.29882812 C-695.10652412 281.21695908 -689.99441319 276.22751512 -684.52709961 271.55883789 C-682.56112954 269.8628075 -680.74044182 268.0548326 -678.9375 266.1875 C-675.7663397 262.97315269 -672.48167247 259.96999037 -669.05859375 257.02734375 C-666.71258942 254.99241181 -664.4201355 252.90459033 -662.125 250.8125 C-657.85439849 246.95727614 -653.44976331 243.31167485 -648.9765625 239.6953125 C-645.46691389 236.79917573 -642.04745408 233.81054174 -638.625 230.8125 C-632.20212585 225.2072741 -625.61034328 219.8815897 -618.86083984 214.67675781 C-616.74949493 213.04192613 -614.64963969 211.393016 -612.55078125 209.7421875 C-604.65916006 203.54625183 -596.71428547 197.47826221 -588.50390625 191.7109375 C-586.00791148 189.95632045 -583.5420822 188.16681632 -581.08984375 186.3515625 C-567.10101206 176.03092806 -552.53858063 166.60947392 -537.9375 157.1875 C-537.02258789 156.59517578 -536.10767578 156.00285156 -535.16503906 155.39257812 C-516.25093065 143.17207471 -496.70681541 131.96051855 -476.9375 121.1875 C-475.45467529 120.37442383 -475.45467529 120.37442383 -473.94189453 119.54492188 C-401.10763565 79.6759059 -323.09583396 49.93987606 -71.3125 2.4375 C-70.51742035 2.37833405 -69.7223407 2.31916809 -68.90316772 2.25820923 C-45.9623137 0.5812156 -22.99799384 -0.02256877 0 0 Z " fill="#FEFEFE" transform="translate(998.9375,-0.1875)"/>
<path d="M0 0 C5.73548921 4.38269976 11.51509338 8.69791895 17.33837891 12.96313477 C24.96577907 18.54975897 32.49482455 24.25589815 40.00244141 30.00219727 C45.73740618 34.38377802 51.51597454 38.69856434 57.33837891 42.96313477 C64.96577907 48.54975897 72.49482455 54.25589815 80.00244141 60.00219727 C85.73740618 64.38377802 91.51597454 68.69856434 97.33837891 72.96313477 C104.96577907 78.54975897 112.49482455 84.25589815 120.00244141 90.00219727 C125.73740618 94.38377802 131.51597454 98.69856434 137.33837891 102.96313477 C144.96577907 108.54975897 152.49482455 114.25589815 160.00244141 120.00219727 C165.73740618 124.38377802 171.51597454 128.69856434 177.33837891 132.96313477 C184.96577907 138.54975897 192.49482455 144.25589815 200.00244141 150.00219727 C205.73740618 154.38377802 211.51597454 158.69856434 217.33837891 162.96313477 C224.96577907 168.54975897 232.49482455 174.25589815 240.00244141 180.00219727 C245.73740618 184.38377802 251.51597454 188.69856434 257.33837891 192.96313477 C264.96577907 198.54975897 272.49482455 204.25589815 280.00244141 210.00219727 C285.73740618 214.38377802 291.51597454 218.69856434 297.33837891 222.96313477 C304.96577907 228.54975897 312.49482455 234.25589815 320.00244141 240.00219727 C325.73740618 244.38377802 331.51597454 248.69856434 337.33837891 252.96313477 C344.96577907 258.54975897 352.49482455 264.25589815 360.00244141 270.00219727 C366.49880954 274.96549917 373.06100956 279.83078152 379.65673828 284.66088867 C385.77155651 289.14994174 391.81173109 293.73159598 397.83837891 298.33813477 C399.170625 299.35109619 399.170625 299.35109619 400.52978516 300.38452148 C404.18913247 303.16697769 407.84112565 305.9522067 411.43212891 308.82250977 C412.39119141 309.57016602 413.35025391 310.31782227 414.33837891 311.08813477 C415.11181641 311.70946289 415.88525391 312.33079102 416.68212891 312.97094727 C418.79997319 314.19779536 418.79997319 314.19779536 421.11181641 313.53344727 C425.02435484 311.28009418 428.44786669 308.53636502 431.96337891 305.71313477 C438.27762703 300.71975386 444.64930713 295.83514104 451.15087891 291.08813477 C457.94036117 286.12308958 464.65987031 281.07647336 471.33837891 275.96313477 C478.724699 270.30947515 486.17032623 264.74843087 493.67431641 259.25219727 C499.61509324 254.89036444 505.48591151 250.44258928 511.33837891 245.96313477 C518.72479682 240.30960082 526.17032356 234.74843283 533.67431641 229.25219727 C539.61509324 224.89036444 545.48591151 220.44258928 551.33837891 215.96313477 C558.72479682 210.30960082 566.17032356 204.74843283 573.67431641 199.25219727 C579.61509324 194.89036444 585.48591151 190.44258928 591.33837891 185.96313477 C598.72479682 180.30960082 606.17032356 174.74843283 613.67431641 169.25219727 C619.61509324 164.89036444 625.48591151 160.44258928 631.33837891 155.96313477 C638.72479682 150.30960082 646.17032356 144.74843283 653.67431641 139.25219727 C659.61509324 134.89036444 665.48591151 130.44258928 671.33837891 125.96313477 C678.72479682 120.30960082 686.17032356 114.74843283 693.67431641 109.25219727 C699.61509324 104.89036444 705.48591151 100.44258928 711.33837891 95.96313477 C718.72479682 90.30960082 726.17032356 84.74843283 733.67431641 79.25219727 C739.61509324 74.89036444 745.48591151 70.44258928 751.33837891 65.96313477 C758.72479682 60.30960082 766.17032356 54.74843283 773.67431641 49.25219727 C779.61509324 44.89036444 785.48591151 40.44258928 791.33837891 35.96313477 C798.72479682 30.30960082 806.17032356 24.74843283 813.67431641 19.25219727 C819.61509638 14.89036214 825.48580413 10.44245272 831.33837891 5.96313477 C839.63185539 -0.38185595 847.98967141 -6.62940464 856.42041016 -12.79077148 C859.2119781 -14.83213193 861.98006091 -16.89824067 864.72509766 -19.00170898 C889.35691969 -37.76263322 918.12844594 -49.5148904 949.40087891 -49.34936523 C950.53275635 -49.34372559 951.66463379 -49.33808594 952.83081055 -49.33227539 C990.61067184 -48.79267757 1024.45193996 -32.86447196 1050.99121094 -6.25463867 C1075.71119863 19.34110923 1088.22396 53.75500636 1088.09006119 89.06250763 C1088.09215329 90.43040468 1088.09512009 91.79830063 1088.09886992 93.16619414 C1088.10660022 96.89906893 1088.10202883 100.63183915 1088.09531401 104.36471208 C1088.09021407 108.43572348 1088.09677091 112.50671956 1088.10180068 116.57772875 C1088.10900742 123.70417829 1088.10881517 130.8305975 1088.10370636 137.95704842 C1088.09612998 148.5544745 1088.10001481 159.15187508 1088.10612297 169.749301 C1088.11664735 188.67815472 1088.1157445 207.60699492 1088.10996515 226.53584991 C1088.1049324 243.10089215 1088.1036214 259.66592944 1088.10601044 276.23097229 C1088.10623959 277.87969967 1088.10623959 277.87969967 1088.10647338 279.56173468 C1088.10709606 284.02364202 1088.10773286 288.48554936 1088.1083929 292.94745669 C1088.11450977 334.79649178 1088.10896578 376.64551826 1088.09819911 418.49455202 C1088.08870803 455.66816624 1088.08955729 492.84176676 1088.09912109 530.01538086 C1088.10983227 571.7882831 1088.11407595 613.56117775 1088.10789657 655.33408117 C1088.10725514 659.78781986 1088.10662946 664.24155855 1088.10601044 668.69529724 C1088.10585228 669.79190695 1088.10569413 670.88851665 1088.10553118 672.01835695 C1088.10325703 688.57226304 1088.10591531 705.12616364 1088.11096954 721.68006897 C1088.11668827 740.50414659 1088.11525792 759.32820859 1088.10440806 778.15228426 C1088.09853724 788.68512806 1088.09814962 799.21793805 1088.1057004 809.75078096 C1088.11018921 816.78905443 1088.10738671 823.82730082 1088.09869087 830.86557028 C1088.09394 834.87379905 1088.0922927 838.8819607 1088.09950283 842.89018732 C1088.10600721 846.54341359 1088.10315614 850.19651376 1088.09314151 853.84973101 C1088.09020731 855.768222 1088.09697451 857.68672055 1088.10425007 859.60519999 C1087.98907441 886.45957842 1078.58181237 908.80378059 1059.96337891 928.15063477 C996.75168649 989.63313195 806.73782351 952.96313477 783.83837891 952.96313477 C783.83837891 783.01313477 783.83837891 613.06313477 783.83837891 437.96313477 C769.00875367 448.86303416 769.00875367 448.86303416 754.33837891 459.96313477 C746.95341095 465.61853774 739.50639635 471.17786446 732.00244141 476.67407227 C726.06166457 481.03590509 720.1908463 485.48368025 714.33837891 489.96313477 C706.95196099 495.61666871 699.50643425 501.17783671 692.00244141 506.67407227 C686.06166457 511.03590509 680.1908463 515.48368025 674.33837891 519.96313477 C666.95196099 525.61666871 659.50643425 531.17783671 652.00244141 536.67407227 C646.06166457 541.03590509 640.1908463 545.48368025 634.33837891 549.96313477 C626.95196099 555.61666871 619.50643425 561.17783671 612.00244141 566.67407227 C606.06166457 571.03590509 600.1908463 575.48368025 594.33837891 579.96313477 C586.95196099 585.61666871 579.50643425 591.17783671 572.00244141 596.67407227 C566.06166457 601.03590509 560.1908463 605.48368025 554.33837891 609.96313477 C546.95196099 615.61666871 539.50643425 621.17783671 532.00244141 626.67407227 C526.06166457 631.03590509 520.1908463 635.48368025 514.33837891 639.96313477 C506.95196099 645.61666871 499.50643425 651.17783671 492.00244141 656.67407227 C486.06166457 661.03590509 480.1908463 665.48368025 474.33837891 669.96313477 C466.96272642 675.60842889 459.53228148 681.16754826 452.03320312 686.64770508 C447.70165678 689.82253682 443.41255106 693.04412148 439.15869141 696.32250977 C438.20929687 697.0534082 437.25990234 697.78430664 436.28173828 698.53735352 C434.44316052 699.95674064 432.60833324 701.38100316 430.77783203 702.81079102 C429.94445312 703.4540332 429.11107422 704.09727539 428.25244141 704.76000977 C427.51977051 705.33074219 426.78709961 705.90147461 426.03222656 706.48950195 C423.61824405 708.11100189 421.67027905 709.25626594 418.83837891 709.96313477 C416.64453125 708.94360352 416.64453125 708.94360352 414.42431641 707.15063477 C413.17424805 706.16643555 413.17424805 706.16643555 411.89892578 705.16235352 C411.01269531 704.43661133 410.12646484 703.71086914 409.21337891 702.96313477 C407.31612639 701.46163624 405.41766504 699.96166403 403.51806641 698.46313477 C402.56383789 697.70258789 401.60960937 696.94204102 400.62646484 696.15844727 C396.60374608 692.99099656 392.47924525 689.97339812 388.33837891 686.96313477 C380.70882578 681.3795221 373.18186152 675.67031648 365.67431641 669.92407227 C359.93935163 665.54249151 354.16078328 661.22770519 348.33837891 656.96313477 C340.71097874 651.37651056 333.18193326 645.67037138 325.67431641 639.92407227 C319.93935163 635.54249151 314.16078328 631.22770519 308.33837891 626.96313477 C300.71097874 621.37651056 293.18193326 615.67037138 285.67431641 609.92407227 C279.93935163 605.54249151 274.16078328 601.22770519 268.33837891 596.96313477 C260.71097874 591.37651056 253.18193326 585.67037138 245.67431641 579.92407227 C239.93935163 575.54249151 234.16078328 571.22770519 228.33837891 566.96313477 C220.71097874 561.37651056 213.18193326 555.67037138 205.67431641 549.92407227 C199.93935163 545.54249151 194.16078328 541.22770519 188.33837891 536.96313477 C180.71097874 531.37651056 173.18193326 525.67037138 165.67431641 519.92407227 C159.93935163 515.54249151 154.16078328 511.22770519 148.33837891 506.96313477 C140.71097874 501.37651056 133.18193326 495.67037138 125.67431641 489.92407227 C119.93935163 485.54249151 114.16078328 481.22770519 108.33837891 476.96313477 C100.71097874 471.37651056 93.18193326 465.67037138 85.67431641 459.92407227 C79.93935163 455.54249151 74.16078328 451.22770519 68.33837891 446.96313477 C60.71097874 441.37651056 53.18193326 435.67037138 45.67431641 429.92407227 C39.93935163 425.54249151 34.16078328 421.22770519 28.33837891 416.96313477 C20.71097874 411.37651056 13.18193326 405.67037138 5.67431641 399.92407227 C-0.06064837 395.54249151 -5.83921672 391.22770519 -11.66162109 386.96313477 C-19.28902126 381.37651056 -26.81806674 375.67037138 -34.32568359 369.92407227 C-40.06064837 365.54249151 -45.83921672 361.22770519 -51.66162109 356.96313477 C-59.28902126 351.37651056 -66.81806674 345.67037138 -74.32568359 339.92407227 C-80.06064837 335.54249151 -85.83921672 331.22770519 -91.66162109 326.96313477 C-99.28902126 321.37651056 -106.81806674 315.67037138 -114.32568359 309.92407227 C-120.06064837 305.54249151 -125.83921672 301.22770519 -131.66162109 296.96313477 C-139.28902126 291.37651056 -146.81806674 285.67037138 -154.32568359 279.92407227 C-160.06064837 275.54249151 -165.83921672 271.22770519 -171.66162109 266.96313477 C-179.28902126 261.37651056 -186.81806674 255.67037138 -194.32568359 249.92407227 C-200.81831793 244.96362302 -207.37603234 240.10012588 -213.96899414 235.27416992 C-221.09768378 230.04252913 -228.12645991 224.68347171 -235.13427734 219.29125977 C-235.96443359 218.65446289 -236.79458984 218.01766602 -237.64990234 217.36157227 C-238.37733643 216.80131348 -239.10477051 216.24105469 -239.85424805 215.66381836 C-242.17560711 213.81857342 -242.17560711 213.81857342 -245.26028442 212.62745667 C-248.61275029 209.54885903 -248.6261586 208.92433847 -248.90333557 204.57423401 C-248.92994032 202.26073854 -248.92298274 199.94671951 -248.89038086 197.63330078 C-248.8960759 196.36922394 -248.90177094 195.10514709 -248.90763855 193.80276489 C-248.92218841 190.33226192 -248.89919517 186.86291584 -248.86877942 183.39255261 C-248.8423437 179.74152873 -248.84771273 176.09053797 -248.84886169 172.43943787 C-248.84604957 166.28983389 -248.82000492 160.14067303 -248.77905273 153.99121094 C-248.73222969 146.93527192 -248.71604614 139.87982194 -248.71825939 132.82373863 C-248.72030889 125.26318915 -248.69931874 117.70282242 -248.67191958 110.14232898 C-248.66560157 107.99229945 -248.66340633 105.84230055 -248.66220284 103.69226265 C-248.61866163 63.39663168 -248.61866163 63.39663168 -241.97412109 45.15063477 C-241.67368896 44.29155518 -241.37325684 43.43247559 -241.0637207 42.54736328 C-236.43389397 29.71082027 -230.18739307 18.00850412 -222.16162109 6.96313477 C-221.58283203 6.16004883 -221.00404297 5.35696289 -220.40771484 4.52954102 C-198.65180471 -24.08676411 -166.79896634 -42.52939846 -131.41162109 -48.22436523 C-78.23109391 -54.65397815 -40.60111648 -31.07091495 0 0 Z " fill="#EA4335" transform="translate(580.16162109375,548.036865234375)"/>
<path d="M0 0 C2.81047932 1.37485407 5.29057247 2.83360251 7.80859375 4.6953125 C8.54464844 5.23800781 9.28070313 5.78070312 10.0390625 6.33984375 C10.83054687 6.92894531 11.62203125 7.51804687 12.4375 8.125 C13.27152344 8.74246094 14.10554688 9.35992188 14.96484375 9.99609375 C22.07881246 15.27863897 29.12342138 20.65058169 36.15991211 26.03564453 C41.89604575 30.41865249 47.67614956 34.73437041 53.5 39 C61.12740017 44.5866242 68.65644565 50.29276338 76.1640625 56.0390625 C81.89902727 60.42064326 87.67759563 64.73542958 93.5 69 C101.12740017 74.5866242 108.65644565 80.29276338 116.1640625 86.0390625 C121.89902727 90.42064326 127.67759563 94.73542958 133.5 99 C141.12740017 104.5866242 148.65644565 110.29276338 156.1640625 116.0390625 C161.89902727 120.42064326 167.67759563 124.73542958 173.5 129 C181.12740017 134.5866242 188.65644565 140.29276338 196.1640625 146.0390625 C201.89902727 150.42064326 207.67759563 154.73542958 213.5 159 C221.12740017 164.5866242 228.65644565 170.29276338 236.1640625 176.0390625 C241.89902727 180.42064326 247.67759563 184.73542958 253.5 189 C261.11261618 194.5757958 268.62797519 200.26971414 276.12011719 206.00610352 C283.09490356 211.33620035 290.14019046 216.56473485 297.22460938 221.74804688 C297.97033203 222.29396484 298.71605469 222.83988281 299.484375 223.40234375 C300.14147461 223.88179443 300.79857422 224.36124512 301.47558594 224.85522461 C303 226 303 226 304 227 C304.0989683 229.73545119 304.13175749 232.44567269 304.12304783 235.18161106 C304.12420167 236.05396573 304.12535552 236.92632039 304.12654433 237.82511005 C304.12921877 240.78662857 304.12468207 243.74809415 304.12025452 246.70960999 C304.12069005 248.83887016 304.12156462 250.96813028 304.12284368 253.09739012 C304.12509216 258.97834963 304.12106256 264.85929111 304.11606562 270.74024832 C304.11176634 277.07089656 304.11320717 283.4015437 304.1139679 289.73219299 C304.11449346 300.71040688 304.11137797 311.68861399 304.10573006 322.66682625 C304.09981959 334.18481537 304.09596544 345.70280214 304.09487724 357.22079277 C304.0948085 357.93607897 304.09473976 358.65136517 304.09466894 359.38832671 C304.09433062 363.02068092 304.09402923 366.65303514 304.09374207 370.28538936 C304.09163984 396.03506912 304.08489743 421.7847458 304.07543945 447.53442383 C304.06625989 472.55493147 304.05917389 497.57543827 304.05493164 522.59594727 C304.05480011 523.36674859 304.05466859 524.13754991 304.05453308 524.93170885 C304.05321459 532.67218359 304.05193877 540.41265833 304.05069422 548.15313308 C304.04815778 563.92235549 304.04533653 579.69157784 304.04234314 595.46080017 C304.04220585 596.18589517 304.04206856 596.91099016 304.04192711 597.65805773 C304.03272141 646.10537313 304.01685487 694.55268672 304 743 C275.6257333 743.0914582 247.2514853 743.16214553 218.87709979 743.20426132 C215.51922188 743.20926351 212.16134427 743.21444086 208.8034668 743.21972656 C207.80082323 743.22130043 207.80082323 743.22130043 206.77792423 743.22290608 C195.9870307 743.24026136 185.19622333 743.27177179 174.40538073 743.30861118 C163.31423128 743.34615704 152.22312905 743.36796556 141.13191932 743.37635398 C134.91002496 743.38154978 128.68832531 743.39368503 122.46649361 743.42292023 C116.59864237 743.45026622 110.73106428 743.45840648 104.86315536 743.45243073 C102.72074202 743.45352243 100.57831861 743.46136099 98.43596077 743.4768219 C70.12990413 743.67091283 46.64724541 736.34110833 26 716 C6.07589558 696.10915786 -0.25269794 672.46886832 -0.38606041 645.11533121 C-0.38729021 641.3639985 -0.37414314 637.61286396 -0.36076355 633.86155701 C-0.36039995 631.12038728 -0.36457713 628.37922851 -0.36853105 625.63806206 C-0.37471506 619.70146079 -0.36988514 613.76495026 -0.35761642 607.8283596 C-0.33942469 599.00104503 -0.33861701 590.17378701 -0.34124239 581.34645711 C-0.34517384 566.49364879 -0.33519896 551.64088066 -0.31719017 536.78808403 C-0.29941518 522.09031411 -0.28788751 507.39256094 -0.28463173 492.69478035 C-0.28442551 491.7795737 -0.28421929 490.86436705 -0.28400682 489.92142687 C-0.28299177 485.2732095 -0.28208764 480.62499211 -0.2812262 475.9767747 C-0.27493155 443.08712553 -0.25473789 410.1974982 -0.22631836 377.30786133 C-0.19874787 345.36385209 -0.17750546 313.41984884 -0.16479492 281.47583008 C-0.16440034 280.49049507 -0.16400576 279.50516005 -0.16359923 278.4899664 C-0.15964354 268.59447263 -0.15581611 258.69897882 -0.15208265 248.80348496 C-0.14447482 228.64674539 -0.13601106 208.49000621 -0.12702942 188.33326721 C-0.12661755 187.40657296 -0.12620568 186.47987871 -0.12578133 185.52510282 C-0.09819766 123.68339279 -0.05066421 61.8416949 0 0 Z " fill="#4285F3" transform="translate(332,758)"/>
<path d="M0 0 C0.03428246 62.72475932 0.06608095 125.44951973 0.08468628 188.17428589 C0.08510045 189.56702686 0.08510045 189.56702686 0.08552299 190.98790401 C0.09150894 211.16706381 0.09704929 231.34622372 0.10213066 251.52538378 C0.10462531 261.42138218 0.10721842 271.31738055 0.10986328 281.21337891 C0.1101248 282.19814446 0.11038632 283.18291001 0.11065576 284.19751694 C0.11917693 316.11085804 0.13419842 348.02419205 0.15259444 379.93752886 C0.17146596 412.73535757 0.18377236 445.53318235 0.18782998 478.3310164 C0.18840628 482.9645423 0.18905755 487.5980682 0.18975449 492.23159409 C0.18995676 493.59949718 0.18995676 493.59949718 0.19016311 494.99503468 C0.19252562 509.6687616 0.20179927 524.34247639 0.21366407 539.01619837 C0.22544735 553.77181571 0.22993375 568.52742104 0.22700275 583.28304292 C0.22548278 592.04727995 0.22952663 600.81147296 0.24159509 609.57570203 C0.24911211 615.43556288 0.24931519 621.29539502 0.24366363 627.15525788 C0.24065339 630.49070506 0.24185146 633.82600196 0.24976636 637.161451 C0.32128064 669.16265745 -4.93228995 694.34718784 -27.875 718.1875 C-43.86768269 733.74269289 -65.93443067 743.19606078 -88.26339722 743.12025452 C-89.18732305 743.12110894 -90.11124888 743.12196337 -91.06317246 743.12284368 C-94.15395121 743.12448863 -97.24467548 743.11899323 -100.33544922 743.11352539 C-102.5530548 743.11324328 -104.77066047 743.11340172 -106.98826599 743.1139679 C-113.00632198 743.11425494 -119.02435806 743.10837317 -125.04240942 743.10139394 C-131.33248131 743.09514498 -137.62255366 743.09455538 -143.91262817 743.09336853 C-154.46942483 743.09061303 -165.02621495 743.08436574 -175.58300781 743.07543945 C-186.45507775 743.06625616 -197.32714571 743.05917981 -208.19921875 743.05493164 C-208.86971641 743.05466892 -209.54021408 743.05440619 -210.23102985 743.05413551 C-213.59482207 743.05283044 -216.95861429 743.05156674 -220.32240653 743.05032361 C-248.21494277 743.03986953 -276.10747087 743.02227888 -304 743 C-304.30821762 694.00400977 -304.5947773 645.00795192 -304.76217651 596.01126099 C-304.76466154 595.28576921 -304.76714657 594.56027744 -304.7697069 593.81280107 C-304.8235828 578.04483375 -304.87344556 562.27685613 -304.91917593 546.50886314 C-304.94162743 538.77592601 -304.96496548 531.04299167 -304.98876953 523.31005859 C-304.99112319 522.54055039 -304.99347686 521.77104219 -304.99590184 520.97821555 C-305.07256794 496.04874506 -305.20774131 471.12001031 -305.37334997 446.19098531 C-305.54326547 420.5670332 -305.65396725 394.94348802 -305.69046982 369.31898206 C-305.69565639 365.69738598 -305.70151785 362.07579128 -305.70779037 358.45419693 C-305.70900399 357.7414352 -305.7102176 357.02867348 -305.71146799 356.29431291 C-305.73271621 344.83350364 -305.81613532 333.37395489 -305.92297661 321.91365913 C-306.02913293 310.38385085 -306.0679258 298.85577747 -306.04302479 287.32540701 C-306.03149611 281.08035227 -306.04912837 274.83898722 -306.14569855 268.59458923 C-306.2335569 262.87162742 -306.23758437 257.15481963 -306.17618011 251.43156935 C-306.16859741 249.36660652 -306.19124758 247.30125378 -306.24789728 245.23705421 C-306.63533761 230.24222255 -306.63533761 230.24222255 -302.2137433 224.80239096 C-297.90670601 220.68404233 -293.13859805 217.39423824 -288.07154582 214.28287579 C-285.53733058 212.71347609 -283.18042248 210.95619615 -280.82421875 209.1328125 C-279.44687111 208.12806823 -278.0680038 207.12540333 -276.6875 206.125 C-269.89637129 201.1622521 -263.17845525 196.11329775 -256.5 191 C-249.11367991 185.34634038 -241.66805268 179.78529611 -234.1640625 174.2890625 C-228.22328567 169.92722968 -222.3524674 165.47945452 -216.5 161 C-209.11358208 155.34646605 -201.66805534 149.78529806 -194.1640625 144.2890625 C-188.22328567 139.92722968 -182.3524674 135.47945452 -176.5 131 C-169.11358208 125.34646605 -161.66805534 119.78529806 -154.1640625 114.2890625 C-148.2232821 109.92722706 -142.35259083 105.47929729 -136.5 101 C-125.98860202 92.9586937 -115.34368838 85.10939526 -104.66601562 77.29101562 C-94.64383116 69.94811189 -84.70274282 62.51264001 -74.83642578 54.96142578 C-68.33418614 49.99335512 -61.76546576 45.12420401 -55.1640625 40.2890625 C-49.22328338 35.92722799 -43.35254262 31.47935933 -37.5 27 C-27.75601707 19.54430826 -17.92096656 12.21852409 -8 5 C-7.32163086 4.50419434 -6.64326172 4.00838867 -5.94433594 3.49755859 C-1.11817126 0 -1.11817126 0 0 0 Z " fill="#34A853" transform="translate(1668,758)"/>
<path d="M0 0 C1.13187744 0.00563965 2.26375488 0.0112793 3.42993164 0.01708984 C41.20979294 0.55668766 75.05106106 16.48489327 101.59033203 43.09472656 C126.40325554 68.78670273 138.23036091 102.73775423 138.99780273 138.04052734 C139.03182693 139.33360306 139.06585114 140.62667877 139.10090637 141.9589386 C139.40201723 153.78325077 139.56367282 165.61145334 139.68981838 177.43878746 C139.78465756 186.1496232 139.94806414 194.85357347 140.20002407 203.56130826 C140.37228812 209.72640342 140.46252772 215.88962467 140.49469906 222.05701983 C140.51616518 225.72428205 140.57226509 229.38271449 140.71896172 233.04728317 C141.56221964 255.04941061 141.56221964 255.04941061 136.42607498 262.05670929 C131.56877962 266.8861499 126.09098689 270.41083834 120.13769722 273.7413826 C115.81660223 276.25562396 111.90923373 279.28817225 107.9375 282.3125 C106.37694203 283.46097686 104.81465927 284.60711696 103.25 285.75 C98.10014013 289.54463359 93.01711221 293.42458567 87.9375 297.3125 C80.55481654 302.96317561 73.11390427 308.52273936 65.61254883 314.01464844 C59.55970487 318.45731102 53.58502041 322.99628637 47.625 327.5625 C41.42872915 332.30819878 35.19685893 336.96708099 28.81201172 341.45507812 C22.59350595 345.85569952 16.57383213 350.51597725 10.52734375 355.1484375 C4.70897162 359.59974225 -1.15157773 363.9849824 -7.0625 368.3125 C-13.78758218 373.23799154 -20.44303292 378.24598707 -27.0625 383.3125 C-34.44891792 388.96603395 -41.89444466 394.52720194 -49.3984375 400.0234375 C-55.33921433 404.38527032 -61.2100326 408.83304548 -67.0625 413.3125 C-74.44891792 418.96603395 -81.89444466 424.52720194 -89.3984375 430.0234375 C-95.33921433 434.38527032 -101.2100326 438.83304548 -107.0625 443.3125 C-114.44062482 448.95968645 -121.87545446 454.51794255 -129.37426758 460.00366211 C-136.45103447 465.19477244 -143.4213297 470.52157653 -150.359375 475.89648438 C-151.18308594 476.53005859 -152.00679687 477.16363281 -152.85546875 477.81640625 C-153.5724292 478.37142822 -154.28938965 478.9264502 -155.02807617 479.49829102 C-157.21987533 481.06724002 -159.43279598 482.50439128 -161.72090149 483.92588806 C-162.80034767 484.59742621 -162.80034767 484.59742621 -163.90160084 485.28253078 C-164.44969756 485.62242063 -164.99779428 485.96231047 -165.5625 486.3125 C-165.97467561 436.23053642 -166.29176167 386.14874451 -166.48167593 336.06541785 C-166.50418812 330.15005444 -166.52748598 324.23469437 -166.55126953 318.31933594 C-166.55599112 317.14171545 -166.56071271 315.96409496 -166.56557737 314.750789 C-166.64386036 295.69317371 -166.785758 276.6365377 -166.95125033 257.57950298 C-167.11969575 238.01898185 -167.21958216 218.45897286 -167.25609291 198.89775622 C-167.28076866 186.8308412 -167.35863561 174.76669408 -167.5049964 162.70063139 C-167.60029301 154.4215988 -167.62887061 146.14399273 -167.60552479 137.86445175 C-167.59401433 133.0892924 -167.61138913 128.31896027 -167.70819855 123.54466438 C-168.28963466 93.4179334 -168.28963466 93.4179334 -161.59983444 86.01286697 C-157.92511386 82.79843478 -154.03464211 80.42218854 -149.63599753 78.32827878 C-146.95606509 77.01541563 -144.7063608 75.31085337 -142.38671875 73.4453125 C-141.00937111 72.44056823 -139.6305038 71.43790333 -138.25 70.4375 C-131.45886732 65.4747492 -124.7410777 60.42564217 -118.0625 55.3125 C-109.76913423 48.96736847 -101.41120384 42.71995792 -92.98046875 36.55859375 C-90.18890081 34.51723331 -87.42081799 32.45112456 -84.67578125 30.34765625 C-60.04395922 11.58673202 -31.27243296 -0.16552517 0 0 Z " fill="#FABB04" transform="translate(1529.5625,498.6875)"/>
<path d="M0 0 C5.7354899 4.38270028 11.5151093 8.69789596 17.33837891 12.96313477 C26.75641549 19.8618043 36.04004486 26.93157712 45.30395508 34.03540039 C47.64973692 35.95239132 47.64973692 35.95239132 49.80205965 36.91133034 C52.39126203 38.35471792 53.99491475 39.62345323 55.83837891 41.96313477 C57.06081865 47.17535066 56.88435572 52.36276564 56.80041504 57.6803894 C56.80390411 59.31487474 56.81090963 60.94935572 56.82112837 62.58381283 C56.83902445 67.07445157 56.80701074 71.56356508 56.76690388 76.05400944 C56.73237527 80.89648449 56.74404576 85.73887264 56.75012207 90.58143616 C56.75431816 98.97113319 56.72920578 107.36033274 56.68421936 115.74990463 C56.61921924 127.87974762 56.59836952 140.00934989 56.58831543 152.13934816 C56.57080377 171.81902801 56.51755725 191.49844267 56.44189453 211.17797852 C56.3684691 230.29547803 56.31183843 249.41290554 56.27783203 268.53051758 C56.27573024 269.70880449 56.27362846 270.8870914 56.27146298 272.10108398 C56.26102272 278.01216786 56.25091305 283.92325226 56.24096775 289.834337 C56.15802579 338.87745287 56.01711345 387.92028089 55.83837891 436.96313477 C54.39307677 436.00400036 52.94835329 435.04399395 51.50387573 434.08361816 C50.2969875 433.28185276 50.2969875 433.28185276 49.0657177 432.46389008 C46.65779982 430.84146265 44.33138705 429.14428572 42.03369141 427.36938477 C41.21320313 426.7390332 40.39271484 426.10868164 39.54736328 425.45922852 C38.69464844 424.80051758 37.84193359 424.14180664 36.96337891 423.46313477 C30.13872166 418.22527062 23.28094752 413.04370619 16.33837891 407.96313477 C8.71072517 402.37686398 1.18192519 396.67036521 -6.32568359 390.92407227 C-12.06064837 386.54249151 -17.83921672 382.22770519 -23.66162109 377.96313477 C-31.28902126 372.37651056 -38.81806674 366.67037138 -46.32568359 360.92407227 C-52.06064837 356.54249151 -57.83921672 352.22770519 -63.66162109 347.96313477 C-71.28902126 342.37651056 -78.81806674 336.67037138 -86.32568359 330.92407227 C-92.06064837 326.54249151 -97.83921672 322.22770519 -103.66162109 317.96313477 C-111.28902126 312.37651056 -118.81806674 306.67037138 -126.32568359 300.92407227 C-132.06064837 296.54249151 -137.83921672 292.22770519 -143.66162109 287.96313477 C-151.28902126 282.37651056 -158.81806674 276.67037138 -166.32568359 270.92407227 C-172.06064837 266.54249151 -177.83921672 262.22770519 -183.66162109 257.96313477 C-190.38659521 253.03748483 -197.04202913 248.02949586 -203.66162109 242.96313477 C-211.80429236 236.7335188 -220.01083032 230.59952342 -228.27880859 224.53735352 C-229.31455017 223.72473808 -229.31455017 223.72473808 -230.37121582 222.89570618 C-232.58547057 221.36216356 -234.44954378 220.33856767 -236.86450195 219.24247742 C-241.4871789 216.90365809 -245.2951558 214.36227611 -248.16162109 209.96313477 C-250.80383119 201.24241422 -250.02704877 191.7077266 -249.78132486 182.68279505 C-249.69786235 179.05077712 -249.69866 175.41868532 -249.68917847 171.78585815 C-249.66163631 165.676948 -249.57936819 159.57087257 -249.45800781 153.46313477 C-249.28842665 144.92226923 -249.22058871 136.38284675 -249.17215371 127.84056115 C-249.12989403 121.13383026 -249.05664433 114.42738092 -248.98193359 107.72094727 C-248.97462172 107.01665541 -248.96730985 106.31236356 -248.9597764 105.58672953 C-248.50653793 63.08873852 -248.50653793 63.08873852 -241.97412109 45.15063477 C-241.67368896 44.29155518 -241.37325684 43.43247559 -241.0637207 42.54736328 C-236.43389397 29.71082027 -230.18739307 18.00850412 -222.16162109 6.96313477 C-221.58283203 6.16004883 -221.00404297 5.35696289 -220.40771484 4.52954102 C-198.65180471 -24.08676411 -166.79896634 -42.52939846 -131.41162109 -48.22436523 C-78.23109391 -54.65397815 -40.60111648 -31.07091495 0 0 Z " fill="#C5221F" transform="translate(580.16162109375,548.036865234375)"/>
</svg>
